# xmcd CD database file
#
# Track frame offsets:
#	183
#	15908
#	31458
#	50303
#	65508
#	76945
#	92093
#	114858
#	125658
#	142908
#	158623
#	171308
#	186633
#	200208
#	208908
#	222483
#	233330
#	247945
#	260615
#	273818
#
# Disc length: 3840 seconds
#
# Revision: 2
# Processed by: cddbd v1.4PL0 Copyright (c) Steve Scherf et al.
# Submitted via: CDex 1.40Release
#
DISCID=180efe14
DTITLE=B.B. King - The very best of
DYEAR=1900
DGENRE=Blues
TTITLE0=Outside help
TTITLE1=The letter
TTITLE2=Sweet sixteen
TTITLE3=How blue can you get?
TTITLE4=Paying the cost to be the boss
TTITLE5=Walkin' and cryin'
TTITLE6=You've done lost your good thing now
TTITLE7=Catfish blues
TTITLE8=Evil child
TTITLE9=Long night
TTITLE10=Mistreated woman
TTITLE11=My own fault
TTITLE12=Sweet little angel
TTITLE13=Beautician blues
TTITLE14=Troubles troubles troubles
TTITLE15=Treat me right
TTITLE16=B.B's boogie
TTITLE17=Please love me
TTITLE18=Sneakin' around
TTITLE19=The jungle
EXTD=ID3G: 0
EXTT0=
EXTT1=
EXTT2=
EXTT3=
EXTT4=
EXTT5=
EXTT6=
EXTT7=
EXTT8=
EXTT9=
EXTT10=
EXTT11=
EXTT12=
EXTT13=
EXTT14=
EXTT15=
EXTT16=
EXTT17=
EXTT18=
EXTT19=
PLAYORDER=
